<svg width="24" height="24" viewBox="0 0 24 24" fill="none" xmlns="http://www.w3.org/2000/svg">
<g clip-path="url(#clip0_105_1445)">
<path d="M22.5691 13.6597L20.6691 6.82374C20.1122 4.82107 18.9019 3.06202 17.2305 1.82621C15.5591 0.59039 13.5226 -0.0512763 11.4446 0.00320383C9.36666 0.0576839 7.36655 0.805184 5.76221 2.12689C4.15786 3.44859 3.04135 5.26864 2.59014 7.29774L1.11914 13.9127C0.956657 14.6437 0.960414 15.4018 1.13013 16.1311C1.29986 16.8603 1.63121 17.5422 2.09972 18.1263C2.56824 18.7104 3.16196 19.1818 3.83705 19.5057C4.51214 19.8296 5.25137 19.9978 6.00014 19.9977H7.11414C7.34366 21.128 7.95687 22.1442 8.84988 22.8741C9.7429 23.604 10.8608 24.0028 12.0141 24.0028C13.1675 24.0028 14.2854 23.604 15.1784 22.8741C16.0714 22.1442 16.6846 21.128 16.9141 19.9977H17.7521C18.523 19.9978 19.2833 19.8196 19.9739 19.4772C20.6645 19.1347 21.2665 18.6372 21.733 18.0236C22.1994 17.41 22.5177 16.6968 22.6629 15.9398C22.8082 15.1828 22.7764 14.4024 22.5701 13.6597H22.5691ZM12.0141 21.9977C11.3959 21.9952 10.7935 21.8017 10.2894 21.4436C9.78537 21.0856 9.40423 20.5806 9.19814 19.9977H14.8301C14.6241 20.5806 14.2429 21.0856 13.7388 21.4436C13.2348 21.8017 12.6324 21.9952 12.0141 21.9977ZM20.1401 16.8127C19.8615 17.1824 19.5005 17.482 19.0857 17.6877C18.671 17.8934 18.2141 17.9996 17.7511 17.9977H6.00014C5.55093 17.9977 5.10746 17.8967 4.70248 17.7023C4.2975 17.5079 3.94135 17.2251 3.6603 16.8746C3.37926 16.5242 3.1805 16.1151 3.0787 15.6776C2.9769 15.2401 2.97466 14.7852 3.07214 14.3467L4.54214 7.73074C4.89649 6.13694 5.77345 4.70734 7.0336 3.66919C8.29375 2.63103 9.86477 2.04391 11.4969 2.00115C13.1291 1.95839 14.7287 2.46245 16.0414 3.43321C17.3542 4.40396 18.3048 5.78568 18.7421 7.35874L20.6421 14.1947C20.7677 14.6401 20.7877 15.1086 20.7005 15.5631C20.6134 16.0175 20.4215 16.4454 20.1401 16.8127Z" fill="#34312D"/>
</g>
<defs>
<clipPath id="clip0_105_1445">
<rect width="24" height="24" fill="white"/>
</clipPath>
</defs>
</svg>
