<svg width="24" height="25" viewBox="0 0 24 25" fill="none" xmlns="http://www.w3.org/2000/svg">
<g clip-path="url(#clip0_182_2590)">
<path d="M12 8.90576C11.2089 8.90576 10.4355 9.14036 9.77772 9.57988C9.11993 10.0194 8.60723 10.6441 8.30448 11.375C8.00173 12.1059 7.92252 12.9102 8.07686 13.6861C8.2312 14.462 8.61216 15.1748 9.17157 15.7342C9.73098 16.2936 10.4437 16.6746 11.2196 16.8289C11.9956 16.9832 12.7998 16.904 13.5307 16.6013C14.2616 16.2985 14.8864 15.7858 15.3259 15.128C15.7654 14.4702 16 13.6969 16 12.9058C16 11.8449 15.5786 10.8275 14.8284 10.0773C14.0783 9.32719 13.0609 8.90576 12 8.90576ZM12 14.9058C11.6044 14.9058 11.2178 14.7885 10.8889 14.5687C10.56 14.3489 10.3036 14.0366 10.1522 13.6711C10.0009 13.3057 9.96126 12.9035 10.0384 12.5156C10.1156 12.1276 10.3061 11.7713 10.5858 11.4915C10.8655 11.2118 11.2219 11.0214 11.6098 10.9442C11.9978 10.867 12.3999 10.9066 12.7654 11.058C13.1308 11.2094 13.4432 11.4657 13.6629 11.7946C13.8827 12.1235 14 12.5102 14 12.9058C14 13.4362 13.7893 13.9449 13.4142 14.32C13.0391 14.695 12.5304 14.9058 12 14.9058Z" fill="#34312D"/>
<path d="M21.2938 14.8053L20.8498 14.5493C21.0497 13.4617 21.0497 12.3468 20.8498 11.2593L21.2938 11.0033C21.6352 10.8063 21.9345 10.544 22.1746 10.2313C22.4147 9.91868 22.5908 9.56181 22.6929 9.18109C22.7951 8.80037 22.8212 8.40326 22.7699 8.01243C22.7186 7.6216 22.5908 7.24471 22.3938 6.90327C22.1968 6.56184 21.9345 6.26254 21.6219 6.02248C21.3092 5.78241 20.9523 5.60628 20.5716 5.50414C20.1909 5.40199 19.7938 5.37584 19.403 5.42716C19.0121 5.47849 18.6352 5.60629 18.2938 5.80327L17.8488 6.06027C17.0083 5.34219 16.0425 4.78552 14.9998 4.41827V3.90527C14.9998 3.10962 14.6837 2.34656 14.1211 1.78395C13.5585 1.22134 12.7954 0.905273 11.9998 0.905273C11.2041 0.905273 10.4411 1.22134 9.87848 1.78395C9.31587 2.34656 8.9998 3.10962 8.9998 3.90527V4.41827C7.95719 4.78684 6.99165 5.34487 6.1518 6.06427L5.7048 5.80527C5.01524 5.40745 4.19588 5.29985 3.42698 5.50614C2.65808 5.71243 2.00262 6.21571 1.6048 6.90527C1.20697 7.59484 1.09937 8.41419 1.30566 9.18309C1.51195 9.95199 2.01524 10.6074 2.7048 11.0053L3.1488 11.2613C2.94891 12.3488 2.94891 13.4637 3.1488 14.5513L2.7048 14.8073C2.01524 15.2051 1.51195 15.8606 1.30566 16.6295C1.09937 17.3984 1.20697 18.2177 1.6048 18.9073C2.00262 19.5968 2.65808 20.1001 3.42698 20.3064C4.19588 20.5127 5.01524 20.4051 5.7048 20.0073L6.1498 19.7503C6.99056 20.4685 7.95678 21.0251 8.9998 21.3923V21.9053C8.9998 22.7009 9.31587 23.464 9.87848 24.0266C10.4411 24.5892 11.2041 24.9053 11.9998 24.9053C12.7954 24.9053 13.5585 24.5892 14.1211 24.0266C14.6837 23.464 14.9998 22.7009 14.9998 21.9053V21.3923C16.0424 21.0237 17.008 20.4657 17.8478 19.7463L18.2948 20.0043C18.9844 20.4021 19.8037 20.5097 20.5726 20.3034C21.3415 20.0971 21.997 19.5938 22.3948 18.9043C22.7926 18.2147 22.9002 17.3954 22.6939 16.6265C22.4876 15.8576 21.9844 15.2021 21.2948 14.8043L21.2938 14.8053ZM18.7458 11.0293C19.0844 12.2563 19.0844 13.5522 18.7458 14.7793C18.6867 14.9928 18.7002 15.22 18.7841 15.4251C18.8681 15.6302 19.0178 15.8015 19.2098 15.9123L20.2938 16.5383C20.5236 16.6709 20.6913 16.8893 20.7601 17.1456C20.8288 17.4019 20.7929 17.675 20.6603 17.9048C20.5277 18.1346 20.3092 18.3023 20.053 18.371C19.7967 18.4398 19.5236 18.4039 19.2938 18.2713L18.2078 17.6433C18.0157 17.532 17.792 17.4878 17.572 17.5177C17.3521 17.5476 17.1483 17.6498 16.9928 17.8083C16.1027 18.7169 14.9814 19.3653 13.7498 19.6833C13.5348 19.7385 13.3444 19.8638 13.2084 20.0392C13.0724 20.2146 12.9987 20.4303 12.9988 20.6523V21.9053C12.9988 22.1705 12.8934 22.4248 12.7059 22.6124C12.5184 22.7999 12.264 22.9053 11.9988 22.9053C11.7336 22.9053 11.4792 22.7999 11.2917 22.6124C11.1042 22.4248 10.9988 22.1705 10.9988 21.9053V20.6533C10.9989 20.4313 10.9252 20.2156 10.7892 20.0402C10.6532 19.8648 10.4628 19.7395 10.2478 19.6843C9.01615 19.365 7.89513 18.7152 7.0058 17.8053C6.85032 17.6468 6.64654 17.5446 6.42655 17.5147C6.20657 17.4848 5.9829 17.529 5.7908 17.6403L4.7068 18.2673C4.59303 18.334 4.46719 18.3775 4.33652 18.3954C4.20586 18.4132 4.07295 18.4051 3.94545 18.3714C3.81795 18.3377 3.69838 18.2791 3.59362 18.199C3.48886 18.1189 3.40098 18.0188 3.33504 17.9046C3.26909 17.7904 3.22639 17.6643 3.2094 17.5335C3.1924 17.4027 3.20144 17.2699 3.23599 17.1426C3.27054 17.0153 3.32993 16.8961 3.41073 16.7919C3.49153 16.6877 3.59215 16.6005 3.7068 16.5353L4.7908 15.9093C4.98275 15.7985 5.13247 15.6272 5.21646 15.4221C5.30044 15.217 5.31393 14.9898 5.2548 14.7763C4.91616 13.5492 4.91616 12.2533 5.2548 11.0263C5.31286 10.8132 5.29873 10.5868 5.21461 10.3826C5.13049 10.1783 4.98111 10.0077 4.7898 9.89727L3.7058 9.27127C3.47599 9.13867 3.30827 8.9202 3.23954 8.66393C3.17081 8.40766 3.20669 8.13458 3.3393 7.90477C3.47191 7.67496 3.69038 7.50724 3.94664 7.43851C4.20291 7.36978 4.47599 7.40566 4.7058 7.53827L5.7918 8.16627C5.98338 8.27779 6.20658 8.32248 6.42633 8.29334C6.64607 8.2642 6.84991 8.16287 7.0058 8.00527C7.89589 7.09662 9.01722 6.44829 10.2488 6.13027C10.4644 6.07484 10.6554 5.94903 10.7914 5.77277C10.9275 5.59652 11.0008 5.37992 10.9998 5.15727V3.90527C10.9998 3.64006 11.1052 3.3857 11.2927 3.19817C11.4802 3.01063 11.7346 2.90527 11.9998 2.90527C12.265 2.90527 12.5194 3.01063 12.7069 3.19817C12.8944 3.3857 12.9998 3.64006 12.9998 3.90527V5.15727C12.9997 5.37923 13.0734 5.59492 13.2094 5.77035C13.3454 5.94579 13.5358 6.07101 13.7508 6.12627C14.9828 6.44543 16.1042 7.09516 16.9938 8.00527C17.1493 8.16374 17.3531 8.26597 17.573 8.29584C17.793 8.32571 18.0167 8.28154 18.2088 8.17027L19.2928 7.54327C19.4066 7.47658 19.5324 7.43304 19.6631 7.41518C19.7937 7.39731 19.9266 7.40547 20.0541 7.43917C20.1816 7.47288 20.3012 7.53148 20.406 7.61159C20.5107 7.6917 20.5986 7.79174 20.6646 7.90595C20.7305 8.02016 20.7732 8.14628 20.7902 8.27706C20.8072 8.40784 20.7982 8.54069 20.7636 8.66797C20.7291 8.79524 20.6697 8.91442 20.5889 9.01865C20.5081 9.12288 20.4074 9.21009 20.2928 9.27527L19.2088 9.90127C19.0178 10.012 18.8689 10.1827 18.7851 10.387C18.7014 10.5912 18.6876 10.8174 18.7458 11.0303V11.0293Z" fill="#34312D"/>
</g>
<defs>
<clipPath id="clip0_182_2590">
<rect width="24" height="24" fill="white" transform="translate(0 0.905273)"/>
</clipPath>
</defs>
</svg>
