<svg width="24" height="24" viewBox="0 0 24 24" fill="none" xmlns="http://www.w3.org/2000/svg">
<rect x="0.5" y="0.5" width="23" height="23" rx="3.5" fill="white" stroke="#C4CFE3"/>
<path d="M6.01566 17.3512H8.23913V11.9514L5.06274 9.56909V16.3983C5.06274 16.9256 5.48997 17.3512 6.01566 17.3512Z" fill="#4285F4"/>
<path d="M15.8625 17.3512H18.086C18.6133 17.3512 19.0389 16.924 19.0389 16.3983V9.56909L15.8625 11.9514" fill="#34A853"/>
<path d="M15.8625 7.82208V11.9514L19.0389 9.56909V8.29853C19.0389 7.12009 17.6937 6.44829 16.7519 7.15503" fill="#FBBC04"/>
<path d="M8.23901 11.9513V7.82202L12.0507 10.6808L15.8623 7.82202V11.9513L12.0507 14.8101" fill="#EA4335"/>
<path d="M5.06274 8.29853V9.56909L8.23913 11.9514V7.82208L7.34974 7.15503C6.40636 6.44829 5.06274 7.12009 5.06274 8.29853Z" fill="#C5221F"/>
</svg>
