<svg width="24" height="24" viewBox="0 0 24 24" fill="none" xmlns="http://www.w3.org/2000/svg">
<rect width="24" height="24" rx="4" fill="#FF0000"/>
<path d="M18.6752 8.69886C18.5185 8.10977 18.0549 7.64504 17.4652 7.48577C16.3988 7.19995 12.1203 7.19995 12.1203 7.19995C12.1203 7.19995 7.84391 7.19995 6.77537 7.48577C6.18778 7.64286 5.72423 8.10759 5.56536 8.69886C5.28027 9.76795 5.28027 12 5.28027 12C5.28027 12 5.28027 14.232 5.56536 15.301C5.72206 15.8901 6.1856 16.3549 6.77537 16.5141C7.84391 16.8 12.1203 16.8 12.1203 16.8C12.1203 16.8 16.3988 16.8 17.4652 16.5141C18.0528 16.357 18.5163 15.8923 18.6752 15.301C18.9603 14.232 18.9603 12 18.9603 12C18.9603 12 18.9603 9.76795 18.6752 8.69886Z" fill="white"/>
<path d="M10.7536 14.0574L14.3074 12L10.7536 9.9425V14.0574Z" fill="#FF0000"/>
</svg>
