<svg width="8" height="14" viewBox="0 0 8 14" fill="none" xmlns="http://www.w3.org/2000/svg">
<path d="M6.90029 4.87982L2.31029 0.289816C2.12293 0.103565 1.86948 -0.000976562 1.60529 -0.000976562C1.3411 -0.000976562 1.08765 0.103565 0.900291 0.289816C0.806562 0.382779 0.732168 0.49338 0.681399 0.615239C0.630631 0.737098 0.604492 0.867804 0.604492 0.999816C0.604492 1.13183 0.630631 1.26253 0.681399 1.38439C0.732168 1.50625 0.806562 1.61685 0.900291 1.70982L5.50029 6.28982C5.59402 6.38278 5.66841 6.49338 5.71918 6.61524C5.76995 6.7371 5.79609 6.86781 5.79609 6.99982C5.79609 7.13183 5.76995 7.26253 5.71918 7.38439C5.66841 7.50625 5.59402 7.61685 5.50029 7.70982L0.900291 12.2898C0.711987 12.4768 0.605672 12.7309 0.604734 12.9963C0.603797 13.2616 0.708314 13.5165 0.895291 13.7048C1.08227 13.8931 1.33639 13.9994 1.60176 14.0004C1.86712 14.0013 2.12199 13.8968 2.31029 13.7098L6.90029 9.11982C7.46209 8.55732 7.77765 7.79482 7.77765 6.99982C7.77765 6.20481 7.46209 5.44232 6.90029 4.87982Z" fill="#34312D"/>
</svg>
